<svg id="Layer_1" data-name="Layer 1" xmlns="http://www.w3.org/2000/svg" viewBox="0 0 181.67 205.23"><defs><style>.cls-1{fill:#01693b;}.cls-2{fill:#d9bc4a;}</style></defs><path class="cls-1" d="M126.39,198h6c-2,3.15-1,6.54-1.18,9.8,0,.21.48.66.74.66,4.26,0,8.53.05,12.79,0a1.11,1.11,0,0,0,.77-.76c0-2.29.07-4.59-.08-6.88a11.9,11.9,0,0,0-.92-2.8h6.29c-1.65,2.47-1.28,5.2-1.29,7.87,0,4.34-.08,8.69,0,13a40.38,40.38,0,0,0,.78,5.2h-5.89c2-3.77.81-7.88,1.12-11.85,0-.63-.23-.89-.86-.88H132.07c-.64,0-.86.28-.86.89,0,2.79-.06,5.59.08,8.37a17.5,17.5,0,0,0,.88,3.47H126c1.5-2.09,1.23-4.42,1.23-6.7,0-5,.06-10.08,0-15.13A26,26,0,0,0,126.39,198Z" transform="translate(-59.17 -47.39)"/><path class="cls-1" d="M200.65,198.09a33,33,0,0,0-.77,4.88c-.08,6.68,0,13.37,0,20.06v1.76a4.19,4.19,0,0,1-3.36-1.48q-2.44-2.76-4.76-5.64c-3.43-4.29-6.83-8.61-10.25-12.92a2.27,2.27,0,0,0-1-.79v1.28c0,4.76-.06,9.52,0,14.28a34,34,0,0,0,.77,4.68h-4.82c1.66-2.51,1.18-5.26,1.21-7.92,0-4.35,0-8.7,0-13.05,0-1.75.12-3.54-1.38-5.2,1.81,0,3.31-.07,4.8.05.41,0,.83.6,1.15,1q6.83,8.64,13.64,17.3c.29.37.61.74,1.1,1.34.07-.59.13-.88.13-1.18,0-4.72.07-9.44,0-14.15a26.65,26.65,0,0,0-.77-4.3Z" transform="translate(-59.17 -47.39)"/><path class="cls-1" d="M205.86,224.2c1.33-2,1.25-4.17,1.25-6.3,0-5,.06-9.92,0-14.88a34,34,0,0,0-.76-4.87l-.33,0c.06-.05.12-.15.18-.15,4.34.1,8.71-.08,13,.38a12,12,0,0,1,10.61,11.06c.46,6.77-2.87,12-8.88,13.76a22.82,22.82,0,0,1-5.31.92C212.42,224.31,209.23,224.2,205.86,224.2Zm5.24-12.93c0,3,0,5.91,0,8.86,0,.39.35,1.08.57,1.09,2.23.1,4.61.59,6.69,0,7.43-2,8.94-10.68,5.84-15.93-2.35-4-8.06-5.87-12.47-4.24a1.54,1.54,0,0,0-.63,1.21C211.07,205.28,211.1,208.28,211.1,211.27Z" transform="translate(-59.17 -47.39)"/><path class="cls-1" d="M108.62,224.18a3.36,3.36,0,0,1-.52.08h-5.73c1.51-2.34,1.26-4.82,1.26-7.25,0-4.72,0-9.44,0-14.16,0-1.63,0-3.3-1.38-4.77.57,0,.94-.07,1.32-.07,3,0,6.07,0,9.1.15a9.88,9.88,0,0,1,3.85,1.12,5.84,5.84,0,0,1,1,9.93,38.19,38.19,0,0,1-3.62,2.31l9.7,12.56a5.81,5.81,0,0,1-6.34-2.06c-2.74-3.59-5.33-7.28-8-10.93a.92.92,0,0,1-.11-.33c1.23-.5,2.48-.9,3.63-1.5a4.55,4.55,0,0,0,2.82-4.14,4.33,4.33,0,0,0-4-4.62h-.12c-3.57-.41-3.93-.1-3.93,3.4q0,6.88,0,13.78a21.6,21.6,0,0,0,.09,3.32A24.15,24.15,0,0,0,108.62,224.18Z" transform="translate(-59.17 -47.39)"/><path class="cls-1" d="M59.17,219.61c2.1.75,4.2,1.66,6.39,2.23a8.24,8.24,0,0,0,6-.66,3.58,3.58,0,0,0,.78-6.17,22.29,22.29,0,0,0-3.46-2.1,62.21,62.21,0,0,1-6.37-3.65c-4.06-3-3.42-8.37,1.14-10.58,2.8-1.35,5.78-1.35,8.79-1.06,3.48.34,3.49.3,3.43,3.73,0,.24,0,.48,0,.89l-1.09-.63a10,10,0,0,0-6.34-1.53,7.3,7.3,0,0,0-2.56.76,2.9,2.9,0,0,0-.95,4.66A13.07,13.07,0,0,0,68.18,208c1.85,1.05,3.82,1.89,5.7,2.89,2.46,1.32,4.19,3.19,4.1,6.19s-1.86,5-4.35,6.39c-3.09,1.73-6.41,1.8-9.8,1.2-3.62-.63-3.62-.64-4.48-4.15C59.27,220.14,59.2,219.78,59.17,219.61Z" transform="translate(-59.17 -47.39)"/><path class="cls-1" d="M173.14,219.75c-.47,1.3-.9,2.62-1.42,3.9a1.14,1.14,0,0,1-.78.58c-5,0-9.91,0-15.07,0,1.35-2,1.32-4,1.31-6.13,0-5.25,0-10.5-.05-15.75a27.29,27.29,0,0,0-.77-4.35c-.17,0,0,0,.18,0,4,0,8,.05,12.06,0,1.12,0,1.45.37,1.35,1.42a23.93,23.93,0,0,0,0,2.43c-2.46-1.45-5-1.41-7.5-1-1,.14-1.29.51-1.25,1.5.09,2,0,4.09,0,6.31h6.37v3.12c-1.77-.12-3.55-.23-5.32-.38-.77-.06-1.08.18-1.07,1,.06,2.55,0,5.09,0,7.63,0,.72.2,1,.93,1.1C165.9,221.68,169.57,221.64,173.14,219.75Z" transform="translate(-59.17 -47.39)"/><path class="cls-1" d="M99.23,219.34c-.59,1.68-1,3-1.56,4.35a1.06,1.06,0,0,1-.8.54c-4.88,0-9.76,0-14.64,0-.07,0-.14-.08-.33-.19,1.36-1.75,1.22-3.82,1.22-5.86,0-5.21,0-10.42,0-15.63a31.75,31.75,0,0,0-.7-4.45H95.83v3.68c-2.39-1.39-4.84-1.36-7.35-1-1,.15-1.4.51-1.34,1.56a50,50,0,0,1,0,5.05c-.06,1.07.36,1.32,1.34,1.28,1.64-.06,3.28,0,5,0v3.08c-1.76-.12-3.56-.24-5.37-.38-.75-.06-1,.25-1,1,0,2.55,0,5.09,0,7.63,0,.8.29,1,1,1.14C92,221.68,95.61,221.62,99.23,219.34Z" transform="translate(-59.17 -47.39)"/><path class="cls-1" d="M234.72,198.05h6.11c-1.42,1.93-1.27,4.08-1.27,6.19,0,4.79,0,9.59,0,14.38,0,1.89,0,3.77,1.23,5.55H234.4c1.76-3.06,1-6.38,1.1-9.59.1-4.14.08-8.28,0-12.41A25.92,25.92,0,0,0,234.72,198.05Z" transform="translate(-59.17 -47.39)"/><path class="cls-1" d="M239.7,192.12a2.15,2.15,0,1,1-4.29-.13,2.25,2.25,0,0,1,2.2-2.18A2.34,2.34,0,0,1,239.7,192.12Z" transform="translate(-59.17 -47.39)"/><path class="cls-1" d="M176.4,77.06a21.37,21.37,0,0,0-3.23-2c-3.63-1.51-6.87-.36-9.75,1.91A12.83,12.83,0,0,0,158.53,87c-.17,4.58,1.33,8.71,3.31,12.73,2.88,5.84,6.86,11,10.52,16.31,4,5.77,8.13,11.49,11.38,17.67,5.31,10.12,6.71,20.87,2.62,31.88a35.54,35.54,0,0,1-32.89,23.09c-8.32.06-16-2-22.42-7.66-11.6-10.11-12.81-28.38-2.28-39.05,3.41-3.45,7.43-6.31,11.23-9.36a43.75,43.75,0,0,0,8.33-8.15c.58-.78,1.06-1.64,1.65-2.57,2.5,4.62,6.36,7.9,10.37,11,2.43,1.89,4.87,3.76,7.27,5.68A27.28,27.28,0,0,1,177.84,155a26.45,26.45,0,0,1,.13,9.74c-1.5-9-6.95-14.85-13.53-19.95-2-1.53-4-3-5.87-4.67-4.45-4-7.73-8.68-8.48-14.95-.18.2-.34.3-.35.41-.6,5.62-3.58,10-7.52,13.73-2,1.88-4.25,3.48-6.37,5.22-3.77,3.11-7,6.7-8.28,11.51-2.29,8.47.05,15.72,6.43,21.65,16.33,15.16,43,7.76,49.1-13.66,1.9-6.66.87-13.17-1.77-19.48-2.79-6.64-7-12.41-11.13-18.23-3.11-4.37-6.45-8.64-9.08-13.29-4.78-8.47-6.84-17.67-5.19-27.39,1-6.11,3.94-11.16,9.88-13.81C170.66,69.62,175.29,72,176.4,77.06Z" transform="translate(-59.17 -47.39)"/><path class="cls-1" d="M123.71,76.94c.19-3.27,3.6-6.12,7.28-5.92a11.38,11.38,0,0,1,7.48,3.59c4,3.92,5.68,8.81,6,14.29.64,12-3.44,22.35-10.51,31.76-4.7,6.27-9.48,12.48-13.22,19.4a39.66,39.66,0,0,0-3,32c.14.43.34.83.51,1.25a5.19,5.19,0,0,1,.39,1.23,33,33,0,0,1-5.82-11.14c-2.83-9.31-1.61-18.34,2.09-27.13,2.46-5.85,6.22-11,9.77-16.18s7.39-10.54,10.93-15.91a36.75,36.75,0,0,0,5.17-11.38c1.4-5.67,1-11.09-3.61-15.32-2.9-2.65-6.33-4-10.29-2.47A20,20,0,0,0,123.71,76.94Z" transform="translate(-59.17 -47.39)"/><circle class="cls-2" cx="91.06" cy="64.92" r="1.6"/><circle class="cls-2" cx="90.87" cy="49.75" r="1.79"/><circle class="cls-2" cx="90.87" cy="34.65" r="2.48"/><path class="cls-2" d="M165.83,63.43c-6.64-.58-11.52,3.36-15.31,9.78-3.8-6.42-8.68-10.36-15.32-9.78,1.18-2.75,4.11-4.48,9.33-4.88A13.28,13.28,0,0,1,147.89,51l2.63-3.64L153.14,51a13.28,13.28,0,0,1,3.36,7.52C161.72,59,164.65,60.68,165.83,63.43Z" transform="translate(-59.17 -47.39)"/><path class="cls-1" d="M127.51,252.61l-5.32-16.29h2.27l2.54,8c.7,2.2,1.3,4.18,1.74,6.09h0c.46-1.89,1.13-3.94,1.86-6.07l2.76-8.05h2.24l-5.82,16.29Z" transform="translate(-59.17 -47.39)"/><path class="cls-1" d="M138.67,247.49,137,252.61h-2.17l5.53-16.29h2.54l5.56,16.29h-2.25l-1.74-5.12Zm5.35-1.64-1.6-4.69c-.36-1.07-.6-2-.84-3h-.05c-.24,1-.51,2-.82,2.95l-1.6,4.72Z" transform="translate(-59.17 -47.39)"/><path class="cls-1" d="M150.83,236.32h2.11v7.86H153c.44-.63.87-1.21,1.28-1.74l5-6.12h2.61l-5.9,6.91,6.36,9.38h-2.49l-5.37-8-1.54,1.79v6.21h-2.11Z" transform="translate(-59.17 -47.39)"/><path class="cls-1" d="M163.94,236.32h8.77v1.77H166v5.41h6.16v1.74H166v7.37h-2.1Z" transform="translate(-59.17 -47.39)"/><path class="cls-1" d="M177.81,236.32v16.29h-2.1V236.32Z" transform="translate(-59.17 -47.39)"/></svg>